<?xml version="1.0" encoding="utf-8"?>
<!-- Generator: Adobe Illustrator 24.0.1, SVG Export Plug-In . SVG Version: 6.00 Build 0)  -->
<svg version="1.1" id="Calque_1" xmlns="http://www.w3.org/2000/svg" xmlns:xlink="http://www.w3.org/1999/xlink" x="0px" y="0px"
	 viewBox="0 0 609 33.7" style="enable-background:new 0 0 609 33.7;" xml:space="preserve">
<style type="text/css">
	.st0{fill:#4ECBC1;}
	.st1{fill:#FFFFFF;}
	.st2{fill-rule:evenodd;clip-rule:evenodd;fill:#4ECBC1;}
</style>
<g>
	<path class="st0" d="M0,33.7c36.3-4.9,66.7-3.9,92.4-7.4C227.1,10.3,235.2,0,304.5,0s77.4,10.3,212.1,26.3
		c26.2,3.1,56.1,2.5,92.4,7.4H304.5H20.4H0z"/>
</g>
<g>
	<ellipse class="st1" cx="242" cy="18.6" rx="7" ry="6.9"/>
</g>
<path class="st2" d="M244.9,15.3v4.2c0,0.2-0.1,0.4-0.1,0.6c0,0-0.1,0.5-0.4,0.8c-0.3,0.3-0.8,0.5-1.2,0.5c-0.3,0-0.6-0.1-0.8-0.3
	c-0.5-0.5-0.4-1.3,0.2-1.9c0.3-0.3,0.9-0.4,0.9-0.4c0.1,0,0.2-0.1,0.2-0.2v-1.9c0-0.1-0.1-0.1-0.2-0.1l-2.6,0.5
	c-0.1,0-0.2,0.1-0.2,0.2c0,3.6,0,3.6,0,3.6c0,0.3-0.2,0.8-0.5,1c-0.3,0.3-0.8,0.5-1.2,0.5c-0.3,0-0.6-0.1-0.8-0.3
	c-0.4-0.4-0.4-1.3,0.2-1.8c0.3-0.3,0.9-0.4,0.9-0.4c0.2,0,0.3-0.1,0.3-0.2v-3.5c0-0.2,0.2-0.4,0.4-0.4l4.4-0.8h0.1
	C244.7,14.9,244.9,15.1,244.9,15.3z"/>
<path class="st1" d="M256.1,22.7h3.2c2.3,0,3.9-1.4,3.9-3.5s-1.6-3.5-3.9-3.5h-3.2V22.7z M257.7,21.4v-4.3h1.5
	c1.4,0,2.3,0.8,2.3,2.2s-0.9,2.2-2.3,2.2h-1.5V21.4z M269.1,15.7v4.2l-3.5-4.2h-1.3v7h1.6v-4.2l3.5,4.2h1.3v-7H269.1z M275.7,22.8
	c1.2,0,2.2-0.4,2.9-1.3l-1-1c-0.5,0.5-1.1,0.8-1.8,0.8c-1.3,0-2.2-0.9-2.2-2.2s0.9-2.2,2.2-2.2c0.7,0,1.3,0.3,1.8,0.8l1-1
	c-0.7-0.8-1.7-1.2-2.9-1.2c-2.2,0-3.8,1.5-3.8,3.6S273.6,22.8,275.7,22.8z M281.3,21.4v-1.6h3.2v-1.3h-3.2V17h3.7v-1.3h-5.3v7h5.4
	v-1.3H281.3z M289,20.5h2.8v-1.2H289V20.5z M299.3,22.8c1.2,0,2.2-0.4,2.9-1.3l-1-1c-0.5,0.5-1.1,0.8-1.8,0.8
	c-1.3,0-2.2-0.9-2.2-2.2s0.9-2.2,2.2-2.2c0.7,0,1.3,0.3,1.8,0.8l1-1c-0.7-0.8-1.7-1.2-2.9-1.2c-2.2,0-3.8,1.5-3.8,3.6
	S297.1,22.8,299.3,22.8z M305.3,17.2c-0.9,0-1.7,0.2-2.3,0.6l0.6,1.1c0.4-0.3,1-0.5,1.5-0.5c0.8,0,1.2,0.4,1.2,1.1h-1.2
	c-1.6,0-2.3,0.7-2.3,1.6s0.8,1.6,2,1.6c0.8,0,1.4-0.3,1.6-0.8v0.8h1.5v-3.1C307.9,18,307,17.2,305.3,17.2z M305.2,21.7
	c-0.6,0-0.9-0.3-0.9-0.6c0-0.4,0.2-0.6,1-0.6h1.1V21C306.2,21.5,305.7,21.7,305.2,21.7z M313.3,22.7h1.9l-2.4-3.1l2.2-2.3h-1.9
	l-2.3,2.2v-4.2h-1.6v7.4h1.6v-1.4l0.8-0.7L313.3,22.7z M321,20c0-1.7-1.2-2.8-2.8-2.8c-1.6,0-2.9,1.2-2.9,2.8c0,1.6,1.2,2.8,3.1,2.8
	c1,0,1.7-0.3,2.2-0.9l-0.8-0.9c-0.4,0.3-0.8,0.5-1.4,0.5c-0.8,0-1.4-0.4-1.5-1.1h4.1C320.9,20.3,321,20.2,321,20z M318.2,18.4
	c0.7,0,1.2,0.4,1.3,1.1h-2.6C316.9,18.9,317.5,18.4,318.2,18.4z M328,17.2c-0.7,0-1.2,0.2-1.6,0.6v-2.6h-1.6v7.5h1.5v-0.6
	c0.4,0.5,1,0.7,1.7,0.7c1.5,0,2.7-1.1,2.7-2.8C330.7,18.3,329.5,17.2,328,17.2z M327.7,21.5c-0.8,0-1.4-0.6-1.4-1.5s0.6-1.5,1.4-1.5
	s1.4,0.6,1.4,1.5S328.5,21.5,327.7,21.5z M335.4,17.3l-1.5,3.7l-1.5-3.7h-1.6l2.3,5.4l0,0c-0.2,0.5-0.4,0.7-0.9,0.7
	c-0.3,0-0.6-0.1-0.9-0.3l-0.6,1.1c0.4,0.3,1,0.5,1.5,0.5c1,0,1.7-0.4,2.2-1.7l2.4-5.7C336.8,17.3,335.4,17.3,335.4,17.3z
	 M343.4,21.3c-0.2,0.1-0.4,0.2-0.6,0.2c-0.4,0-0.7-0.2-0.7-0.7v-2.2h1.3v-1.2h-1.3v-1.3h-1.6v1.3h-0.8v1.2h0.8v2.2
	c0,1.3,0.7,1.9,2,1.9c0.5,0,0.9-0.1,1.3-0.3L343.4,21.3z M348,17.2c-0.7,0-1.3,0.2-1.7,0.6v-2.6h-1.6v7.5h1.6V20
	c0-1,0.5-1.5,1.3-1.5c0.7,0,1.1,0.4,1.1,1.3v2.9h1.6v-3.1C350.2,18,349.3,17.2,348,17.2z M357,20c0-1.7-1.2-2.8-2.8-2.8
	c-1.6,0-2.9,1.2-2.9,2.8c0,1.6,1.2,2.8,3.1,2.8c1,0,1.7-0.3,2.2-0.9l-0.8-0.9c-0.4,0.3-0.8,0.5-1.3,0.5c-0.8,0-1.4-0.4-1.5-1.1h4.1
	C357,20.3,357,20.2,357,20z M354.2,18.4c0.7,0,1.2,0.4,1.3,1.1h-2.7C353,18.9,353.5,18.4,354.2,18.4z M363.4,22.8
	c1.7,0,2.9-1.2,2.9-2.8c0-1.6-1.2-2.8-2.9-2.8c-1.7,0-3,1.1-3,2.8C360.5,21.6,361.7,22.8,363.4,22.8z M363.4,21.5
	c-0.8,0-1.4-0.6-1.4-1.5s0.6-1.5,1.4-1.5s1.4,0.6,1.4,1.5S364.2,21.5,363.4,21.5z M370,22.8c1.1,0,2-0.5,2.4-1.4l-1.2-0.7
	c-0.3,0.5-0.7,0.7-1.2,0.7c-0.8,0-1.4-0.5-1.4-1.5c0-0.9,0.6-1.5,1.4-1.5c0.5,0,0.9,0.2,1.2,0.7l1.2-0.7c-0.4-0.9-1.3-1.4-2.4-1.4
	c-1.8,0-3,1.1-3,2.8C367,21.6,368.3,22.8,370,22.8z M378.5,20c0-1.7-1.2-2.8-2.8-2.8c-1.6,0-2.9,1.2-2.9,2.8c0,1.6,1.2,2.8,3.1,2.8
	c1,0,1.7-0.3,2.2-0.9l-0.8-0.9c-0.4,0.3-0.8,0.5-1.4,0.5c-0.8,0-1.4-0.4-1.5-1.1h4.1C378.5,20.3,378.5,20.2,378.5,20z M375.7,18.4
	c0.7,0,1.2,0.4,1.3,1.1h-2.6C374.5,18.9,375,18.4,375.7,18.4z M381.6,17.2c-0.9,0-1.7,0.2-2.3,0.6l0.6,1.1c0.4-0.3,1-0.5,1.5-0.5
	c0.8,0,1.2,0.4,1.2,1.1h-1.2c-1.6,0-2.3,0.7-2.3,1.6s0.8,1.6,2,1.6c0.8,0,1.3-0.3,1.6-0.8v0.8h1.5v-3.1
	C384.2,18,383.2,17.2,381.6,17.2z M381.5,21.7c-0.5,0-0.9-0.3-0.9-0.6c0-0.4,0.2-0.6,1-0.6h1.1V21C382.4,21.5,382,21.7,381.5,21.7z
	 M388.8,17.2c-0.7,0-1.4,0.2-1.8,0.7v-0.6h-1.5v5.4h1.6V20c0-1,0.5-1.5,1.3-1.5c0.7,0,1.1,0.4,1.1,1.3v2.9h1.6v-3.1
	C391.1,18,390.1,17.2,388.8,17.2z"/>
</svg>
